<svg width="16" height="16" viewBox="0 0 16 16" fill="none" xmlns="http://www.w3.org/2000/svg">
<path d="M8.00001 9.5999C8.88366 9.5999 9.60001 8.88356 9.60001 7.9999C9.60001 7.11625 8.88366 6.3999 8.00001 6.3999C7.11635 6.3999 6.40001 7.11625 6.40001 7.9999C6.40001 8.88356 7.11635 9.5999 8.00001 9.5999Z" fill="#112954"/>
<path fill-rule="evenodd" clip-rule="evenodd" d="M0.366211 7.99993C1.38561 4.75423 4.41785 2.3999 7.99998 2.3999C11.5821 2.3999 14.6143 4.75421 15.6337 7.99987C14.6143 11.2456 11.5821 13.5999 7.99996 13.5999C4.41786 13.5999 1.38563 11.2456 0.366211 7.99993ZM11.2 7.9999C11.2 9.76721 9.76732 11.1999 8.00001 11.1999C6.2327 11.1999 4.80001 9.76721 4.80001 7.9999C4.80001 6.23259 6.2327 4.7999 8.00001 4.7999C9.76732 4.7999 11.2 6.23259 11.2 7.9999Z" fill="#112954"/>
</svg>
