<?xml version="1.0" encoding="utf-8"?>
<!-- Generator: Adobe Illustrator 25.2.3, SVG Export Plug-In . SVG Version: 6.00 Build 0)  -->
<svg version="1.1" id="Layer_1" xmlns="http://www.w3.org/2000/svg" xmlns:xlink="http://www.w3.org/1999/xlink" x="0px" y="0px"
	 viewBox="0 0 22 19" style="enable-background:new 0 0 22 19;" xml:space="preserve">
<style type="text/css">
	.st0{fill:#253F73;}
</style>
<path class="st0" d="M21.7,12.6c-0.6-0.5-1.4-0.8-2.2-1.1v-1c0-1.1-0.2-2.3-0.7-3.3c0.9-0.8,1.5-1.8,2-2.8s0.7-2.2,0.7-3.4
	c0-0.1,0-0.2-0.1-0.2c-0.1-0.1-0.2-0.1-0.2-0.1c-1.1,0-2.3,0.2-3.3,0.7c-1.1,0.4-2,1.1-2.8,1.9c-1.2-0.6-2.4-0.9-3.8-0.9
	c-1.3,0-2.6,0.3-3.8,0.9C6.8,2.4,5.9,1.8,4.8,1.3C3.8,0.9,2.6,0.6,1.5,0.6c-0.1,0-0.2,0-0.2,0.1S1.1,0.9,1.1,1
	c0,1.2,0.2,2.3,0.7,3.4c0.5,1.1,1.2,2,2,2.8c-0.5,1-0.7,2.2-0.7,3.3v1c-0.8,0.2-1.5,0.6-2.2,1.1c0,0-0.1,0.1-0.1,0.1
	c0,0,0,0.1,0,0.1c0,0,0,0.1,0,0.1c0,0,0,0.1,0.1,0.1c0,0,0.1,0.1,0.1,0.1c0,0,0.1,0,0.1,0c0,0,0.1,0,0.1,0c0,0,0.1,0,0.1-0.1
	c0.5-0.4,1.1-0.7,1.8-0.9c0.1,0.5,0.2,1.1,0.4,1.6c-0.8,0.4-1.4,1-2,1.7c0,0,0,0.1-0.1,0.1c0,0,0,0.1,0,0.1c0,0,0,0.1,0,0.1
	c0,0,0.1,0.1,0.1,0.1c0,0,0.1,0,0.1,0.1c0,0,0.1,0,0.1,0c0,0,0.1,0,0.1,0c0,0,0.1-0.1,0.1-0.1c0.5-0.6,1-1.1,1.7-1.5
	c0.6,1.1,1.4,2,2.4,2.7s2.2,1,3.5,1H13c1.2,0,2.4-0.3,3.5-1c1-0.6,1.9-1.6,2.4-2.7c0.7,0.4,1.2,0.9,1.7,1.5c0.1,0.1,0.1,0.1,0.2,0.1
	c0.1,0,0.2,0,0.3-0.1c0.1-0.1,0.1-0.1,0.1-0.2c0-0.1,0-0.2-0.1-0.3c-0.5-0.7-1.2-1.3-2-1.7c0.2-0.5,0.3-1.1,0.4-1.6
	c0.6,0.2,1.2,0.5,1.8,0.9c0,0,0.1,0,0.1,0.1c0,0,0.1,0,0.1,0c0,0,0.1,0,0.1,0c0,0,0.1-0.1,0.1-0.1c0,0,0-0.1,0.1-0.1
	c0,0,0-0.1,0-0.1C21.9,12.8,21.9,12.7,21.7,12.6C21.8,12.7,21.8,12.6,21.7,12.6L21.7,12.6z M17.8,5.5c-0.3-0.4-0.7-0.8-1-1.1
	c0.5-0.5,1.2-0.8,1.9-0.8C18.6,4.3,18.3,5,17.8,5.5z M18.6,6.6c-0.1-0.2-0.2-0.4-0.3-0.5c0.7-0.8,1.2-1.8,1.2-2.9
	c0-0.1,0-0.2-0.1-0.2s-0.2-0.1-0.2-0.1c-1,0-2,0.4-2.8,1.1c-0.2-0.1-0.3-0.2-0.5-0.3c1.4-1.4,3.2-2.2,5.2-2.3
	C20.8,3.3,20,5.2,18.6,6.6L18.6,6.6z M15.3,4.2c-0.3,0.4-0.7,0.8-1.2,1c-0.5,0.2-1,0.2-1.5,0.1c-0.5-0.1-1-0.4-1.3-0.8
	c-0.4-0.4-0.6-0.9-0.7-1.4C12.3,2.9,13.9,3.3,15.3,4.2L15.3,4.2z M1.8,1.3C3.8,1.4,5.6,2.2,7,3.6C6.8,3.7,6.7,3.8,6.5,4
	C5.7,3.2,4.7,2.8,3.7,2.8c-0.1,0-0.2,0-0.2,0.1C3.4,3,3.3,3.1,3.3,3.2c0,1.1,0.4,2.1,1.2,2.9C4.4,6.2,4.3,6.4,4.2,6.6
	C2.8,5.2,1.9,3.3,1.8,1.3z M4.9,5.5C4.4,5,4.1,4.3,4.1,3.6C4.8,3.6,5.4,3.9,6,4.4C5.6,4.7,5.2,5.1,4.9,5.5L4.9,5.5z M18.5,13.5
	c-0.6-0.3-1.2-0.4-1.8-0.4c0,0-0.1,0-0.1,0c0,0-0.1,0-0.1,0.1c0,0-0.1,0.1-0.1,0.1c0,0,0,0.1,0,0.1c0,0,0,0.1,0,0.1
	c0,0,0,0.1,0.1,0.1c0,0,0.1,0.1,0.1,0.1c0,0,0.1,0,0.1,0c0.5,0,1.1,0.1,1.5,0.4c-0.5,1-1.2,1.8-2.2,2.4c-0.9,0.6-2,0.9-3.1,0.9H9.8
	c-1.1,0-2.2-0.3-3.1-0.9C5.8,16,5,15.2,4.5,14.2c0.5-0.2,1-0.3,1.5-0.3c0,0,0.1,0,0.1,0c0,0,0.1,0,0.1-0.1c0,0,0.1-0.1,0.1-0.1
	c0,0,0-0.1,0-0.1c0-0.1,0-0.2-0.1-0.2c-0.1-0.1-0.1-0.1-0.2-0.1c-0.6,0-1.3,0.1-1.8,0.4c-0.2-0.5-0.3-1-0.3-1.5
	C4.5,12,5.2,12,5.8,12.2c0.1,0,0.2,0,0.3,0c0.1,0,0.1-0.1,0.2-0.2c0-0.1,0-0.2,0-0.3S6.1,11.5,6,11.5c-0.7-0.2-1.4-0.2-2.1-0.1v-0.9
	c0-1.1,0.2-2.2,0.7-3.2c0.5-1.1,1.3-2,2.2-2.7c0.9-0.7,2-1.2,3.2-1.4c0.1,0.7,0.4,1.3,0.8,1.8c0.4,0.5,1,0.8,1.7,1
	C13.1,6,13.8,6,14.4,5.8c0.6-0.2,1.1-0.7,1.5-1.2c1,0.7,1.7,1.7,2.2,2.8c0.5,1,0.7,2.1,0.7,3.2v0.9c-0.7-0.1-1.4-0.1-2.1,0.1
	c-0.1,0-0.2,0.1-0.2,0.2c0,0.1,0,0.2,0,0.3c0,0.1,0.1,0.2,0.2,0.2c0.1,0,0.2,0,0.3,0c0.6-0.2,1.2-0.2,1.9-0.1
	C18.8,12.6,18.7,13.1,18.5,13.5L18.5,13.5z"/>
<path class="st0" d="M14.3,7.4c-0.7,0-1.2,0.7-1.2,1.5s0.5,1.5,1.2,1.5s1.2-0.7,1.2-1.5S15,7.4,14.3,7.4z M14.3,9.7
	c-0.3,0-0.5-0.4-0.5-0.8c0-0.4,0.2-0.8,0.5-0.8c0.3,0,0.5,0.4,0.5,0.8C14.8,9.3,14.6,9.7,14.3,9.7z M9.7,8.9c0-0.8-0.5-1.5-1.2-1.5
	S7.3,8.1,7.3,8.9s0.5,1.5,1.2,1.5S9.7,9.7,9.7,8.9z M8,8.9c0-0.4,0.2-0.8,0.5-0.8S9,8.5,9,8.9c0,0.4-0.2,0.8-0.5,0.8S8,9.3,8,8.9z
	 M14.3,12.6c-0.1,0-0.2,0-0.2,0.1c-0.1,0.1-0.1,0.2-0.1,0.2c0,0.3-0.1,0.6-0.3,0.8c-0.2,0.2-0.5,0.3-0.8,0.3c-0.3,0-0.6-0.1-0.8-0.3
	c-0.2-0.2-0.3-0.5-0.3-0.8v-0.5c0.4-0.2,0.8-0.5,1.1-0.9c0.1-0.1,0.1-0.2,0.1-0.3c0-0.1,0-0.2,0-0.3c0-0.1-0.1-0.2-0.2-0.3
	c-0.1-0.1-0.2-0.1-0.3-0.1c-0.7-0.1-1.4-0.1-2,0c-0.1,0-0.2,0.1-0.3,0.1C10,10.8,9.9,10.9,9.8,11c0,0.1-0.1,0.2,0,0.3
	c0,0.1,0.1,0.2,0.1,0.3c0.3,0.4,0.7,0.7,1.1,0.9V13c0,0.3-0.1,0.6-0.3,0.8c-0.2,0.2-0.5,0.3-0.8,0.3c-0.3,0-0.6-0.1-0.8-0.3
	c-0.2-0.2-0.3-0.5-0.3-0.8c0-0.1,0-0.2-0.1-0.2c-0.1-0.1-0.2-0.1-0.2-0.1c-0.1,0-0.2,0-0.2,0.1S8.1,12.9,8.1,13
	c0,0.3,0.1,0.5,0.2,0.8c0.1,0.2,0.3,0.5,0.5,0.6c0.2,0.2,0.4,0.3,0.7,0.4c0.3,0.1,0.5,0.1,0.8,0c0.1,0.7,0.6,1.2,1.1,1.2
	c0.5,0,1-0.5,1.1-1.2c0.1,0,0.2,0,0.3,0c0.5,0,0.9-0.2,1.3-0.5s0.5-0.8,0.5-1.3c0-0.1,0-0.2-0.1-0.2C14.5,12.7,14.4,12.6,14.3,12.6z
	 M10.5,11.3c0.6-0.1,1.1-0.1,1.7,0c-0.2,0.3-0.5,0.5-0.9,0.7C11.1,11.8,10.8,11.5,10.5,11.3z M11.4,15.3c-0.2,0-0.4-0.3-0.5-0.8
	c0.2-0.1,0.3-0.3,0.5-0.4c0.1,0.2,0.3,0.3,0.5,0.4C11.8,15,11.6,15.3,11.4,15.3z"/>
</svg>
