<?xml version="1.0" encoding="utf-8"?>
<!-- Generator: Adobe Illustrator 25.2.3, SVG Export Plug-In . SVG Version: 6.00 Build 0)  -->
<svg version="1.1" id="Layer_1" xmlns="http://www.w3.org/2000/svg" xmlns:xlink="http://www.w3.org/1999/xlink" x="0px" y="0px"
	 viewBox="0 0 22 20" style="enable-background:new 0 0 22 20;" xml:space="preserve">
<style type="text/css">
	.st0{fill:#253F73;}
</style>
<path class="st0" d="M21.2,8.6c0-0.1,0-0.2-0.1-0.2C21,8.3,21,8.3,20.9,8.3h-6c-0.1-0.4-0.3-0.7-0.5-1c-0.3-0.3-0.6-0.5-1-0.5v-6
	c0-0.1,0-0.2-0.1-0.2c-0.1-0.1-0.1-0.1-0.2-0.1c-1.6,0-3.1,0.5-4.5,1.3c-1.3,0.9-2.4,2.1-3,3.6l0-1.6c0-0.1,0-0.2-0.1-0.2
	C5.4,3.3,5.3,3.3,5.2,3.3h0v0h-1C4.1,3.1,4,2.9,3.8,2.7C3.6,2.6,3.3,2.5,3.1,2.5H1.9c-0.3,0-0.6,0.1-0.8,0.3C0.9,3,0.8,3.3,0.8,3.6
	c0,0.3,0.1,0.6,0.3,0.8l0,0c0.1,0.1,0.2,0.2,0.4,0.2c0.1,0.1,0.3,0.1,0.4,0.1h1.2c0.3,0,0.6-0.1,0.8-0.3l0,0C4,4.3,4.1,4.1,4.2,4
	h0.7L4.8,8.3c0,0.1,0,0.2,0,0.3c0,1.5,0.4,3,1.2,4.2c0.8,1.3,1.9,2.3,3.2,3c-0.3,0.1-0.6,0.2-0.9,0.3C8,16,7.6,15.9,7.2,15.9
	c-0.4,0-0.8,0.2-1.1,0.4c-0.3,0.3-0.5,0.6-0.6,1c-0.1,0.4-0.1,0.8,0.1,1.2c0.2,0.4,0.4,0.7,0.8,0.9c0.3,0.2,0.8,0.3,1.2,0.2
	c0.4,0,0.8-0.2,1.1-0.5c0.3-0.3,0.5-0.6,0.6-1h7.7c0.1,0.4,0.3,0.8,0.6,1c0.3,0.3,0.7,0.5,1.1,0.5c0.4,0,0.8,0,1.2-0.2
	c0.3-0.2,0.6-0.5,0.8-0.9c0.2-0.4,0.2-0.8,0.1-1.2c-0.1-0.4-0.3-0.7-0.6-1c-0.3-0.3-0.7-0.4-1.1-0.4c-0.4,0-0.8,0.1-1.1,0.3
	c-0.3-0.1-0.6-0.3-0.9-0.3c1.3-0.7,2.4-1.7,3.2-3C20.8,11.6,21.2,10.1,21.2,8.6z M3.6,3.6c0,0.1,0,0.2-0.1,0.3l0,0
	c0,0-0.1,0.1-0.2,0.1c-0.1,0-0.1,0-0.2,0H1.9c-0.1,0-0.1,0-0.2,0C1.6,4,1.6,4,1.6,4l0,0c0,0-0.1-0.1-0.1-0.2c0-0.1,0-0.1,0-0.2
	c0-0.1,0-0.2,0.1-0.3c0.1-0.1,0.2-0.1,0.3-0.1h1.2c0.1,0,0.2,0,0.3,0.1C3.5,3.4,3.6,3.5,3.6,3.6L3.6,3.6L3.6,3.6z M8.1,18.6
	c-0.2,0.2-0.3,0.3-0.5,0.3C7.4,19,7.2,19,7,18.9s-0.4-0.2-0.5-0.3c-0.2-0.2-0.3-0.3-0.3-0.5c-0.1-0.2-0.1-0.4,0-0.6
	c0.1-0.2,0.2-0.4,0.3-0.5c0.2-0.1,0.3-0.3,0.6-0.3c0.2-0.1,0.4,0,0.6,0C7.2,16.9,7,17.3,7,17.8c0,0.1,0,0.2,0.1,0.2
	c0.1,0.1,0.1,0.1,0.2,0.1h1.2C8.4,18.3,8.3,18.5,8.1,18.6L8.1,18.6z M7.7,17.4C7.9,17.3,8,17.1,8.2,17c0.1,0.1,0.2,0.3,0.2,0.4
	L7.7,17.4z M17.8,17c0.2,0.1,0.4,0.3,0.5,0.4h-0.7C17.6,17.3,17.7,17.1,17.8,17z M18.7,18.1c0.1,0,0.2,0,0.2-0.1
	c0.1-0.1,0.1-0.1,0.1-0.2c0-0.4-0.2-0.8-0.7-1.2c0.2-0.1,0.5-0.1,0.7,0c0.2,0.1,0.4,0.2,0.6,0.4c0.2,0.2,0.2,0.4,0.3,0.7
	c0,0.2,0,0.5-0.1,0.7c-0.1,0.2-0.3,0.4-0.5,0.5C19,19,18.8,19,18.6,19c-0.2,0-0.5-0.1-0.6-0.3c-0.2-0.2-0.3-0.4-0.4-0.6H18.7z
	 M13.9,7.7c0.2,0.2,0.3,0.5,0.4,0.8c0,0.3,0,0.6-0.2,0.8c-0.2,0.2-0.4,0.4-0.7,0.5c-0.3,0.1-0.6,0.1-0.8,0S12,9.4,11.9,9.2
	c-0.1-0.3-0.2-0.5-0.1-0.8c0.1-0.3,0.2-0.5,0.4-0.7c0.2-0.2,0.5-0.3,0.8-0.3c0.2,0,0.3,0,0.5,0.1C13.6,7.5,13.8,7.6,13.9,7.7z
	 M12.7,1.1v5.7h0l0,0h0l0,0h0l0,0l0,0l0,0h0l0,0l0,0l0,0l0,0l0,0l0,0l0,0l0,0h0l0,0l0,0l0,0h0l0,0l0,0l0,0l0,0l0,0l0,0l0,0l0,0h0
	l0,0l0,0l0,0l0,0h0l0,0l0,0l0,0l0,0l0,0l0,0l0,0l0,0h0l0,0l0,0l0,0l0,0l0,0h0l0,0l0,0l0,0l0,0l0,0l0,0l0,0l0,0h0l0,0l0,0l0,0l0,0
	l0,0l0,0L9.5,1.9C10.4,1.4,11.5,1.1,12.7,1.1z M7.7,3.3c0.4-0.4,0.8-0.7,1.2-1l2.9,4.9l0,0l0,0l0,0l0,0l0,0h0l0,0l0,0l0,0l0,0l0,0
	l0,0l0,0l0,0l0,0l0,0l0,0l0,0l0,0l0,0l0,0l0,0l0,0l0,0l0,0l0,0l0,0l0,0l0,0l0,0l0,0l0,0l0,0l0,0l0,0l0,0l0,0l0,0l0,0l0,0l0,0l0,0
	l0,0l0,0l0,0l0,0l0,0l0,0l0,0l0,0l0,0l0,0l0,0l0,0l0,0l0,0l0,0l0,0l0,0l0,0l0,0l0,0l0,0l0,0l0,0l0,0l0,0l0,0l0,0l0,0l0,0l0,0l0,0
	l0,0l0,0l0,0l0,0l0,0l0,0l0,0l0,0l0,0l0,0l0,0l0,0l0,0l0,0l0,0l0,0l0,0l0,0l0,0l0,0l0,0l0,0l0,0v0l0,0l0,0l0,0l0,0l0,0l0,0l0,0l0,0
	l0,0l0,0l0,0l0,0l0,0l0,0l0,0L6.7,4.5C7,4,7.3,3.6,7.7,3.3z M6.4,5l4.9,2.9l0,0l0,0l0,0l0,0l0,0l0,0l0,0l0,0v0l0,0l0,0l0,0l0,0v0
	l0,0l0,0l0,0l0,0v0l0,0l0,0l0,0l0,0l0,0l0,0l0,0l0,0l0,0l0,0l0,0v0l0,0l0,0l0,0v0l0,0l0,0l0,0l0,0v0l0,0l0,0l0,0l0,0l0,0l0,0l0,0
	l0,0v0l0,0l0,0l0,0v0l0,0l0,0l0,0v0l0,0l0,0l0,0v0l0,0v0l0,0v0H5.5C5.5,7.1,5.8,6,6.4,5z M17.2,16.7c-0.2,0.2-0.3,0.5-0.3,0.8H9.1
	c0-0.3-0.2-0.5-0.3-0.8c0.4-0.2,0.9-0.3,1.3-0.4c0.8,0.3,1.6,0.5,2.5,0.5h0l0,0l0,0l0,0l0.1,0h0c0,0,0.1,0,0.1,0h0.2
	c0,0,0.1,0,0.1,0h0l0.1,0l0,0l0,0l0,0h0c0.9,0,1.7-0.2,2.5-0.5C16.3,16.4,16.8,16.5,17.2,16.7z M13.1,16.1h-0.2
	c-1.9,0-3.8-0.8-5.2-2.1c-1.4-1.3-2.2-3.2-2.3-5.1h5.7l0,0l0,0v0l0,0l0,0l0,0l0,0l0,0l0,0l0,0l0,0l0,0l0,0l0,0l0,0l0,0l0,0l0,0l0,0
	l0,0l0,0v0l0,0l0,0l0,0l0,0l0,0l0,0l0,0v0l0,0l0,0l0,0l0,0l0,0l0,0l0,0l0,0c0,0,0,0,0,0.1l0,0l0,0l0,0l0,0l0,0l0,0l0,0l0,0l0,0l0,0
	l0,0l0,0l0,0l0,0l0,0l0,0l0,0l0,0l0,0l0,0l0,0l0,0l0,0l0,0l0,0l0,0l0,0l0,0l0,0l0,0l0,0l0,0l0,0l0,0l0,0l0,0l0,0l0,0l0,0l0,0l0,0
	l0,0l0,0l0,0l0,0l0,0l0,0l0,0l0,0l0,0c0.2,0.2,0.4,0.3,0.6,0.4c0.2,0.1,0.5,0.1,0.7,0.1c0.2,0,0.5,0,0.7-0.1
	c0.2-0.1,0.4-0.2,0.6-0.4l0,0l0,0l0,0c0,0,0,0,0,0l0,0l0,0l0,0l0,0l0,0l0,0l0,0l0,0l0,0l0,0l0,0l0,0l0,0l0,0l0,0l0,0l0,0l0,0l0,0
	l0,0l0,0l0,0l0,0l0,0l0,0l0,0l0,0l0,0v0l0,0l0,0l0,0l0,0l0,0l0,0v0l0,0l0,0l0,0l0,0l0,0l0,0l0,0v0l0,0l0,0l0,0l0,0l0,0l0,0l0,0l0,0
	l0,0l0,0l0,0l0,0l0,0l0,0l0,0l0,0l0,0v0l0,0l0,0l0,0c0,0,0,0,0,0l0,0v0l0,0l0,0l0,0l0,0l0,0l0,0l0,0l0,0l0,0l0,0l0,0l0,0l0,0l0,0
	l0,0l0,0l0,0v0l0,0v0l0,0l0,0h5.7c-0.1,1.9-0.9,3.7-2.3,5.1C16.9,15.4,15,16.1,13.1,16.1z"/>
</svg>
