<?xml version="1.0" encoding="utf-8"?>
<!-- Generator: Adobe Illustrator 25.2.3, SVG Export Plug-In . SVG Version: 6.00 Build 0)  -->
<svg version="1.1" id="Layer_1" xmlns="http://www.w3.org/2000/svg" xmlns:xlink="http://www.w3.org/1999/xlink" x="0px" y="0px"
	 viewBox="0 0 8 18" style="enable-background:new 0 0 8 18;" xml:space="preserve">
<style type="text/css">
	.st0{fill:#253F73;}
</style>
<path class="st0" d="M7,8.5h-1V4.1C6.1,4,6,3.9,6,3.9C5.9,3.8,5.8,3.7,5.7,3.7H5.4V2.2c0-0.2-0.1-0.4-0.2-0.6C5.1,1.4,5,1.2,4.8,1.1
	L3.6,0.3c-0.1,0-0.1-0.1-0.2-0.1c-0.1,0-0.1,0-0.2,0C3.1,0.3,3,0.3,3,0.4c0,0.1-0.1,0.1-0.1,0.2v3.1H2.7c-0.1,0-0.2,0-0.3,0.1
	C2.3,3.9,2.2,4,2.2,4.1v4.4h-1c-0.1,0-0.1,0-0.2,0c0,0-0.1,0.1-0.1,0.1c0,0-0.1,0.1-0.1,0.1c0,0,0,0.1,0,0.2v8.3
	c0,0.1,0,0.2,0.1,0.3c0.1,0.1,0.2,0.1,0.3,0.1H7c0.1,0,0.2,0,0.3-0.1c0.1-0.1,0.1-0.2,0.1-0.3V8.9c0-0.1,0-0.1,0-0.2
	c0,0-0.1-0.1-0.1-0.1c0,0-0.1-0.1-0.1-0.1C7.1,8.5,7.1,8.5,7,8.5z M3.7,1.4l0.6,0.4c0.1,0,0.1,0.1,0.2,0.2c0,0.1,0.1,0.2,0.1,0.2
	v1.5H3.7V1.4z M3.1,4.6h2.2v4H3.1V4.6z M6.6,16.9H1.7V9.3h4.9V16.9z"/>
</svg>
