<?xml version="1.0" encoding="utf-8"?>
<!-- Generator: Adobe Illustrator 25.2.3, SVG Export Plug-In . SVG Version: 6.00 Build 0)  -->
<svg version="1.1" id="Layer_1" xmlns="http://www.w3.org/2000/svg" xmlns:xlink="http://www.w3.org/1999/xlink" x="0px" y="0px"
	 viewBox="0 0 20 18" style="enable-background:new 0 0 20 18;" xml:space="preserve">
<style type="text/css">
	.st0{fill:#253F73;}
</style>
<path class="st0" d="M18.1,0H1.6C1.3,0,1.1,0.1,0.9,0.3C0.7,0.5,0.6,0.7,0.6,1v12.1c0,0.3,0.1,0.5,0.3,0.7C1.1,13.9,1.3,14,1.6,14
	h5.9C7.4,15.6,7,16.6,6.8,17H6.1C6,17,5.9,17,5.9,17c-0.1,0.1-0.1,0.1-0.1,0.2c0,0.1,0,0.1,0.1,0.2c0.1,0.1,0.1,0.1,0.2,0.1h7.6
	c0.1,0,0.1,0,0.2-0.1c0.1-0.1,0.1-0.1,0.1-0.2c0-0.1,0-0.1-0.1-0.2C13.8,17,13.7,17,13.7,17h-0.7c-0.2-0.3-0.6-1.3-0.7-2.9h5.9
	c0.3,0,0.5-0.1,0.7-0.3c0.2-0.2,0.3-0.4,0.3-0.7V1c0-0.3-0.1-0.5-0.3-0.7C18.6,0.1,18.4,0,18.1,0z M1.6,0.5h16.5
	c0.1,0,0.2,0,0.3,0.1s0.1,0.2,0.1,0.3v9.5h-0.8V1.6c0-0.1,0-0.1-0.1-0.2c-0.1-0.1-0.1-0.1-0.2-0.1H2.2c-0.1,0-0.1,0-0.2,0.1
	C2,1.4,1.9,1.5,1.9,1.6v8.9H1.2V1c0-0.1,0-0.2,0.1-0.3C1.4,0.6,1.5,0.5,1.6,0.5z M2.5,10.5V1.9h14.8v8.6H2.5z M12.3,17H7.4
	C7.8,16,8,15,8.1,14h3.6C11.7,15,11.9,16,12.3,17z M18.1,13.5H1.6c-0.1,0-0.2,0-0.3-0.1c-0.1-0.1-0.1-0.2-0.1-0.3V11h17.4v2.1
	c0,0.1,0,0.2-0.1,0.3C18.4,13.4,18.3,13.5,18.1,13.5z"/>
<path class="st0" d="M9.9,11.3c-0.2,0-0.4,0.1-0.5,0.2c-0.2,0.1-0.3,0.3-0.3,0.4c-0.1,0.2-0.1,0.4-0.1,0.5c0,0.2,0.1,0.4,0.3,0.5
	c0.1,0.1,0.3,0.2,0.5,0.3c0.2,0,0.4,0,0.5-0.1c0.2-0.1,0.3-0.2,0.4-0.3c0.1-0.2,0.2-0.3,0.2-0.5c0-0.2-0.1-0.5-0.3-0.7
	C10.4,11.4,10.1,11.3,9.9,11.3z M9.9,12.6c-0.1,0-0.2,0-0.2-0.1c-0.1,0-0.1-0.1-0.1-0.2c0-0.1,0-0.2,0-0.2c0-0.1,0.1-0.1,0.1-0.2
	c0.1-0.1,0.1-0.1,0.2-0.1c0.1,0,0.2,0,0.2,0c0.1,0,0.1,0.1,0.2,0.1c0,0.1,0.1,0.1,0.1,0.2c0,0.1,0,0.2-0.1,0.3S10,12.6,9.9,12.6z"/>
</svg>
