<?xml version="1.0" encoding="utf-8"?>
<!-- Generator: Adobe Illustrator 25.2.3, SVG Export Plug-In . SVG Version: 6.00 Build 0)  -->
<svg version="1.1" id="Layer_1" xmlns="http://www.w3.org/2000/svg" xmlns:xlink="http://www.w3.org/1999/xlink" x="0px" y="0px"
	 viewBox="0 0 25 16" style="enable-background:new 0 0 25 16;" xml:space="preserve">
<style type="text/css">
	.st0{fill:none;stroke:#253F73;stroke-width:0.7;stroke-linecap:round;stroke-linejoin:round;stroke-miterlimit:10;}
</style>
<path class="st0" d="M3.3,13.5l-0.8,1.4h1.3c0.9-0.9,2.1-1.4,3.5-1.4H3.3z M21.8,13.5l0.8,1.4h-1.3c-0.9-0.9-2.1-1.4-3.5-1.4H21.8z
	 M22.7,6.3c-0.8,0-1.4,0.6-1.4,1.4v2.9H3.9V7.7c0-0.8-0.6-1.4-1.4-1.4C1.6,6.3,1,6.9,1,7.7v5.8h23.1V7.7C24.1,6.9,23.5,6.3,22.7,6.3
	z"/>
<path class="st0" d="M12.5,0.5v10.1 M12.5,0.5H6.8c-1.6,0-2.9,1.3-2.9,2.9v7.2h8.7 M12.5,0.5h5.8c1.6,0,2.9,1.3,2.9,2.9v7.2h-8.7"/>
<path class="st0" d="M7.1,3.8l2.2,2.2"/>
<path class="st0" d="M7.1,5.9l2.2-2.2 M15.8,3.8L18,5.9 M15.8,5.9L18,3.8"/>
</svg>
