<?xml version="1.0" encoding="utf-8"?>
<!-- Generator: Adobe Illustrator 25.2.3, SVG Export Plug-In . SVG Version: 6.00 Build 0)  -->
<svg version="1.1" id="Layer_1" xmlns="http://www.w3.org/2000/svg" xmlns:xlink="http://www.w3.org/1999/xlink" x="0px" y="0px"
	 viewBox="0 0 19 15" style="enable-background:new 0 0 19 15;" xml:space="preserve">
<style type="text/css">
	.st0{fill:#253F73;}
</style>
<path class="st0" d="M1.2,1h16.3c0.2,0,0.3,0.1,0.4,0.2c0.1,0.1,0.2,0.3,0.2,0.4v12.6c0,0.2-0.1,0.3-0.2,0.4
	c-0.1,0.1-0.3,0.2-0.4,0.2H1.2c-0.1,0-0.2,0-0.2,0c-0.1,0-0.1-0.1-0.2-0.1c-0.1-0.1-0.1-0.1-0.1-0.2c0-0.1,0-0.1,0-0.2V1.6
	c0-0.2,0.1-0.3,0.2-0.4C0.9,1.1,1.1,1,1.2,1z M17.4,1.7h-16V14h16V1.7z"/>
<path class="st0" d="M2.2,12c-0.1,0.1-0.1,0.2-0.1,0.2c0,0.1,0,0.2,0.1,0.2c0.1,0.1,0.1,0.1,0.2,0.1c0.1,0,0.2,0,0.2-0.1L7.2,8
	l3.4,3.4c0.1,0.1,0.2,0.1,0.2,0.1c0.1,0,0.2,0,0.2-0.1c0.1-0.1,0.1-0.1,0.1-0.2c0-0.1,0-0.2-0.1-0.2L7.5,7.3
	C7.4,7.2,7.3,7.1,7.2,7.1c-0.1,0-0.2,0-0.3,0.1L2.2,12z"/>
<path class="st0" d="M9,9.3C8.9,9.3,8.9,9.4,8.9,9.5c0,0.1,0,0.2,0.1,0.2c0.1,0.1,0.1,0.1,0.2,0.1c0.1,0,0.2,0,0.2-0.1l3.1-3.1
	l3.4,3.4c0.1,0.1,0.2,0.1,0.2,0.1c0.1,0,0.2,0,0.2-0.1c0.1-0.1,0.1-0.1,0.1-0.2c0-0.1,0-0.2-0.1-0.2l-3.6-3.7
	c-0.1-0.1-0.2-0.1-0.3-0.1c-0.1,0-0.2,0-0.3,0.1L9,9.3L9,9.3z"/>
<path class="st0" d="M5.1,3.1c0.4,0,0.7,0.1,1,0.3c0.3,0.2,0.5,0.5,0.7,0.8C6.9,4.6,6.9,5,6.8,5.3C6.8,5.7,6.6,6,6.3,6.2
	C6.1,6.5,5.8,6.7,5.4,6.7c-0.4,0.1-0.7,0-1.1-0.1C4,6.5,3.7,6.3,3.5,6S3.2,5.3,3.2,5c0-0.2,0-0.5,0.1-0.7C3.5,4,3.6,3.8,3.8,3.7
	c0.2-0.2,0.4-0.3,0.6-0.4C4.6,3.2,4.8,3.1,5.1,3.1z M5.8,4.2C5.7,4,5.5,3.9,5.3,3.9c-0.2,0-0.4,0-0.6,0.1C4.4,4,4.3,4.2,4.1,4.3
	C4,4.5,4,4.7,4,5C4,5.2,4,5.4,4.1,5.6C4.3,5.7,4.4,5.9,4.6,6C4.8,6.1,5.1,6.1,5.3,6c0.2,0,0.4-0.2,0.6-0.3C5.9,5.6,6,5.5,6.1,5.4
	C6.1,5.2,6.1,5.1,6.1,5c0-0.1,0-0.3-0.1-0.4C6,4.4,5.9,4.3,5.8,4.2z"/>
</svg>
