<?xml version="1.0" encoding="utf-8"?>
<!-- Generator: Adobe Illustrator 25.2.3, SVG Export Plug-In . SVG Version: 6.00 Build 0)  -->
<svg version="1.1" id="Layer_1" xmlns="http://www.w3.org/2000/svg" xmlns:xlink="http://www.w3.org/1999/xlink" x="0px" y="0px"
	 viewBox="0 0 23 19" style="enable-background:new 0 0 23 19;" xml:space="preserve">
<style type="text/css">
	.st0{fill:#253F73;}
</style>
<path class="st0" d="M3.6,9.8c-0.3,0.2,0,0.6,0.3,0.4c3.3-2.2,8.1-2.2,11.4,0c0.1,0,0.1,0.1,0.2,0c0.1,0,0.1-0.1,0.2-0.1
	c0-0.1,0.1-0.1,0-0.2c0-0.1-0.1-0.1-0.1-0.2C12.1,7.5,7.1,7.5,3.6,9.8z M1.1,18.3h17c0.1,0,0.1,0,0.2-0.1c0.1-0.1,0.1-0.1,0.1-0.2
	v-6.1c0-0.3-0.1-0.7-0.4-0.9c-0.2-0.2-0.6-0.4-0.9-0.4h-0.4c-0.3,0-0.7,0.1-1,0.2c-0.3,0.1-0.6,0.3-0.8,0.6
	c-0.2,0.2-0.4,0.5-0.5,0.8c-0.1,0.3-0.2,0.6-0.2,1c-0.3-0.2-0.6-0.3-1-0.3h-2.4c-0.2,0-0.5,0.1-0.7,0.2c-0.2,0.1-0.4,0.3-0.5,0.5
	c-0.1-0.2-0.3-0.4-0.5-0.5c-0.2-0.1-0.5-0.2-0.7-0.2H6c-0.4,0-0.7,0.1-1,0.3c0-1.6-1.3-2.7-2.9-2.5c-0.3,0-0.7,0.1-0.9,0.4
	c-0.2,0.2-0.4,0.6-0.4,0.9V18c0,0.1,0,0.1,0.1,0.2S1.1,18.3,1.1,18.3z M9.9,14.4c0-0.3,0.1-0.5,0.3-0.7c0.2-0.2,0.4-0.3,0.7-0.3h2.4
	c0.3,0,0.5,0.1,0.7,0.3c0.2,0.2,0.3,0.4,0.3,0.7c0,0.2-0.1,0.3-0.3,0.3H9.9V14.4z M5,14.4c0-0.3,0.1-0.5,0.3-0.7
	c0.2-0.2,0.4-0.3,0.7-0.3h2.4c0.3,0,0.5,0.1,0.7,0.3c0.2,0.2,0.3,0.4,0.3,0.7v0.3H5.3C5.1,14.7,5,14.5,5,14.4z M1.4,11.9
	c0-0.2,0.1-0.4,0.2-0.5c0.1-0.1,0.3-0.2,0.5-0.2h0.4c0.5,0,1,0.2,1.4,0.6c0.4,0.4,0.6,0.9,0.6,1.4v1.3c0,0.2,0.1,0.4,0.2,0.6
	s0.4,0.2,0.6,0.2c2.2,0,6.5,0,8.6,0c0.1,0,0.2,0,0.3-0.1c0.1,0,0.2-0.1,0.3-0.2c0.1-0.1,0.1-0.2,0.2-0.3c0-0.1,0-0.2,0-0.3v-1.2
	c0-0.5,0.2-1,0.6-1.4c0.4-0.4,0.9-0.6,1.4-0.6h0.4c0.2,0,0.4,0.1,0.5,0.2c0.1,0.1,0.2,0.3,0.2,0.5v5.8H1.4L1.4,11.9z"/>
<path class="st0" d="M19.2,18.3h1.1c0.1,0,0.1,0,0.2-0.1c0.1-0.1,0.1-0.1,0.1-0.2V6.6h1.9c0,0,0.1,0,0.1,0c0,0,0.1,0,0.1-0.1
	c0,0,0-0.1,0-0.1c0,0,0-0.1,0-0.1l-0.9-2.9c-0.1-0.2-0.2-0.4-0.4-0.6c-0.2-0.1-0.4-0.2-0.7-0.2h-1.9c-0.2,0-0.5,0.1-0.7,0.2
	c-0.2,0.1-0.3,0.4-0.4,0.6l-0.9,2.9c0,0,0,0.1,0,0.1c0,0,0,0.1,0,0.1c0,0,0.1,0.1,0.1,0.1c0,0,0.1,0,0.1,0h0.5v1
	c-1,0.3-0.7,1.7,0.3,1.8c1,0,1.2-1.4,0.3-1.8v-1h0.9V18c0,0.1,0,0.1,0.1,0.2C19.1,18.3,19.1,18.3,19.2,18.3z M20.1,17.7h-0.6V6.6
	h0.6V17.7z M18.2,8.5c0,0.5-0.7,0.5-0.7,0C17.5,8.1,18.1,8.1,18.2,8.5z M17.4,6.1l0.8-2.6c0-0.1,0.1-0.2,0.2-0.3
	c0.1-0.1,0.2-0.1,0.4-0.1h1.9c0.1,0,0.3,0,0.4,0.1c0.1,0.1,0.2,0.2,0.2,0.3l0.8,2.6H17.4z M12.1,6.8c0.3,0,0.6-0.1,0.8-0.3
	c0.2-0.2,0.3-0.5,0.3-0.8V1.9c0-0.3-0.1-0.6-0.3-0.8c-0.2-0.2-0.5-0.3-0.8-0.3H6.4c-0.3,0-0.6,0.1-0.8,0.3C5.4,1.3,5.3,1.6,5.3,1.9
	v3.8c0,0.3,0.1,0.6,0.3,0.8c0.2,0.2,0.5,0.3,0.8,0.3L12.1,6.8z M5.8,5.7V1.9c0-0.1,0.1-0.3,0.2-0.4c0.1-0.1,0.2-0.2,0.4-0.2h5.8
	c0.1,0,0.3,0.1,0.4,0.2c0.1,0.1,0.2,0.2,0.2,0.4v3.8c0,0.1-0.1,0.3-0.2,0.4c-0.1,0.1-0.2,0.2-0.4,0.2H6.4C6.2,6.3,6.1,6.2,6,6.1
	C5.9,6,5.8,5.9,5.8,5.7z"/>
</svg>
