<?xml version="1.0" encoding="utf-8"?>
<!-- Generator: Adobe Illustrator 25.2.3, SVG Export Plug-In . SVG Version: 6.00 Build 0)  -->
<svg version="1.1" id="Layer_1" xmlns="http://www.w3.org/2000/svg" xmlns:xlink="http://www.w3.org/1999/xlink" x="0px" y="0px"
	 viewBox="0 0 20 18" style="enable-background:new 0 0 20 18;" xml:space="preserve">
<style type="text/css">
	.st0{fill:#253F73;}
</style>
<path class="st0" d="M5.9,1.2c-1.1,0-2.1,0.4-2.8,1.2C2.4,3,1.9,4,1.9,5.1c0,1.1,0.4,2.1,1.2,2.8C3.8,8.6,4.8,9,5.9,9
	c1.1,0,2.1-0.4,2.8-1.2c0.7-0.7,1.2-1.7,1.2-2.8C9.8,4,9.3,3,8.6,2.3C7.9,1.6,6.9,1.2,5.9,1.2z M2.5,1.8c0.9-0.9,2-1.4,3.3-1.4
	c1.3,0,2.5,0.5,3.3,1.4c0.9,0.9,1.4,2,1.4,3.3c0,1.3-0.5,2.5-1.4,3.3c-0.9,0.9-2,1.4-3.3,1.4c-1.3,0-2.5-0.5-3.3-1.4
	c-0.9-0.9-1.4-2-1.4-3.3C1.1,3.8,1.7,2.6,2.5,1.8z"/>
<path class="st0" d="M10.2,4.7c-0.2,0-0.4,0.2-0.4,0.4c0,0.2,0.2,0.4,0.4,0.4h2.7c0.2,0,0.4-0.2,0.4-0.4s-0.2-0.4-0.4-0.4H10.2z"/>
<path class="st0" d="M18.1,4.5h-4.1c-0.2,0-0.3,0.1-0.5,0.2c-0.1,0.1-0.2,0.3-0.2,0.5c0,0.2,0.1,0.3,0.2,0.5
	c0.1,0.1,0.3,0.2,0.5,0.2h4.1c0.2,0,0.3-0.1,0.5-0.2c0.1-0.1,0.2-0.3,0.2-0.5s-0.1-0.3-0.2-0.5C18.4,4.5,18.2,4.5,18.1,4.5z
	 M13.9,3.7h4.1c0.4,0,0.8,0.2,1,0.4c0.3,0.3,0.4,0.6,0.4,1c0,0.4-0.2,0.8-0.4,1c-0.3,0.3-0.6,0.4-1,0.4h-4.1c-0.4,0-0.8-0.2-1-0.4
	c-0.3-0.3-0.4-0.6-0.4-1s0.2-0.8,0.4-1C13.2,3.8,13.5,3.7,13.9,3.7z M1.4,16.2C1.3,16,1,16,0.9,16.2c-0.2,0.2-0.2,0.4,0,0.6l1,1l0,0
	c0.1,0.1,0.2,0.1,0.3,0.1l0,0H8c0.1,0,0.2,0,0.3-0.1l1-1c0.2-0.2,0.2-0.4,0-0.6c-0.2-0.2-0.4-0.2-0.6,0l-0.9,0.9H2.3L1.4,16.2
	L1.4,16.2z"/>
<path class="st0" d="M3.4,11.9h3.4c0.2,0,0.4,0.2,0.4,0.4v3.1c0,0.5-0.2,0.9-0.5,1.3c-0.3,0.3-0.8,0.5-1.3,0.5H4.8
	c-0.5,0-0.9-0.2-1.3-0.5C3.2,16.4,3,15.9,3,15.4v-3.1C3,12.1,3.2,11.9,3.4,11.9L3.4,11.9z M6.4,12.7H3.8v2.7c0,0.3,0.1,0.5,0.3,0.7
	c0.2,0.2,0.4,0.3,0.7,0.3h0.7c0.3,0,0.5-0.1,0.7-0.3c0.2-0.2,0.3-0.4,0.3-0.7V12.7z"/>
<path class="st0" d="M7.1,12.6c-0.2,0-0.4,0.2-0.4,0.4s0.2,0.4,0.4,0.4h0.6c0,0,0.1,0,0.1,0c0,0,0,0,0,0.1v1.2c0,0,0,0.1,0,0.1
	c0,0,0,0-0.1,0H7.1c-0.2,0-0.4,0.2-0.4,0.4c0,0.2,0.2,0.4,0.4,0.4h0.6c0.2,0,0.5-0.1,0.6-0.3c0.2-0.2,0.3-0.4,0.3-0.6v-1.2
	c0-0.2-0.1-0.5-0.3-0.6c-0.2-0.2-0.4-0.3-0.6-0.3H7.1z M10,11.5h8.8c0.2,0,0.4,0.2,0.4,0.4c0,0,0,0.1,0,0.1l-1.6,5.5l-0.4-0.1
	l0.4,0.1c-0.1,0.2-0.2,0.3-0.4,0.3h-5.6c-0.2,0-0.3-0.1-0.4-0.3L9.6,12l0,0c-0.1-0.2,0.1-0.4,0.3-0.5C9.9,11.5,10,11.5,10,11.5z
	 M18.3,12.3h-7.8l1.4,4.8h5L18.3,12.3z"/>
<path class="st0" d="M12.2,9.3h4.4c0.7,0,1.4,0.3,1.9,0.8c0.5,0.5,0.8,1.1,0.8,1.9c0,0.2-0.2,0.4-0.4,0.4H10c-0.2,0-0.4-0.2-0.4-0.4
	c0-0.7,0.3-1.4,0.8-1.9C10.9,9.6,11.5,9.3,12.2,9.3z M16.6,10.1h-4.4c-0.5,0-1,0.2-1.3,0.5c-0.2,0.2-0.4,0.6-0.5,0.9h8
	c-0.1-0.3-0.3-0.7-0.5-0.9C17.6,10.3,17.1,10.1,16.6,10.1z"/>
<path class="st0" d="M14.4,8.1c0.4,0,0.8,0.2,1.1,0.5c0.3,0.3,0.5,0.7,0.5,1.1l0,0c0,0.2-0.2,0.4-0.4,0.4l0,0l0,0h-2.5
	c-0.2,0-0.4-0.2-0.4-0.4c0,0,0,0,0,0c0-0.4,0.2-0.8,0.5-1.1C13.6,8.3,14,8.1,14.4,8.1L14.4,8.1z M15,9.1c-0.1-0.1-0.4-0.2-0.6-0.2
	c-0.2,0-0.4,0.1-0.6,0.2c-0.1,0.1-0.1,0.1-0.1,0.2h1.4C15.1,9.2,15.1,9.2,15,9.1z M18.5,12.6c-0.2,0-0.4,0.2-0.4,0.4
	c0,0.2,0.2,0.4,0.4,0.4h0.8c0.2,0,0.4-0.2,0.4-0.4c0-0.2-0.2-0.4-0.4-0.4H18.5z M10.3,13.4c0.2,0,0.4-0.2,0.4-0.4
	c0-0.2-0.2-0.4-0.4-0.4H9.5c-0.2,0-0.4,0.2-0.4,0.4c0,0.2,0.2,0.4,0.4,0.4H10.3z"/>
</svg>
