<?xml version="1.0" encoding="utf-8"?>
<!-- Generator: Adobe Illustrator 25.2.3, SVG Export Plug-In . SVG Version: 6.00 Build 0)  -->
<svg version="1.1" id="Layer_1" xmlns="http://www.w3.org/2000/svg" xmlns:xlink="http://www.w3.org/1999/xlink" x="0px" y="0px"
	 viewBox="0 0 19 18" style="enable-background:new 0 0 19 18;" xml:space="preserve">
<style type="text/css">
	.st0{fill:#253F73;}
</style>
<path class="st0" d="M17.7,6.5L17.7,6.5c-1.1-3.6-4.4-6.2-8.4-6.2C4.6,0.3,0.6,4.2,0.6,9s3.9,8.8,8.8,8.8c3.9,0,7.2-2.6,8.4-6.2
	c0.3-0.8,0.4-1.7,0.4-2.6C18.1,8.1,18,7.3,17.7,6.5z M15.9,4.1c0.4,0.6,0.8,1.2,1,1.8l-1-0.6V4.1z M15.3,3.4v1.9l-2.8,1.6L9.7,5.3V2
	l1.6-0.9C12.8,1.5,14.2,2.3,15.3,3.4z M1.2,9c0-0.8,0.1-1.6,0.3-2.3l1.6-0.9l1.4,0.8L6,7.4v3.3l-2.8,1.6l-1.6-0.9
	C1.3,10.6,1.2,9.8,1.2,9z M6.5,7.4l2.8-1.6l2.8,1.6v3.3l-2.8,1.6l-2.8-1.6L6.5,7.4z M9.4,0.9c0.4,0,0.7,0,1,0.1l-1,0.6l-1-0.6
	C8.7,0.9,9,0.9,9.4,0.9z M3.4,3.4c1.1-1.2,2.5-2,4-2.3L9.1,2v3.3L6.3,6.9L3.4,5.3V3.4z M2.9,5.3l-1,0.6c0.3-0.6,0.6-1.2,1-1.8V5.3
	L2.9,5.3z M1.8,12.2l1,0.6V14C2.4,13.5,2.1,12.8,1.8,12.2z M3.4,14.7v-1.9L4.8,12l1.4-0.8l2.8,1.6v3.3L7.5,17
	C5.9,16.6,4.5,15.8,3.4,14.7z M9.4,17.2c-0.4,0-0.7,0-1-0.1l1-0.6l1,0.6C10.1,17.2,9.7,17.2,9.4,17.2z M15.3,14.7
	c-1.1,1.2-2.5,2-4,2.3l-1.6-0.9v-3.3l2.8-1.6l1.4,0.8l1.4,0.8V14.7z M15.9,14v-1.2l1-0.6C16.7,12.8,16.3,13.4,15.9,14z M17.2,11.4
	l-1.6,0.9l-1.4-0.8l-1.4-0.8V7.4l0.6-0.3l2.2-1.3l1.6,0.9C17.7,8.2,17.7,9.9,17.2,11.4z"/>
</svg>
