<?xml version="1.0" encoding="utf-8"?>
<!-- Generator: Adobe Illustrator 25.2.3, SVG Export Plug-In . SVG Version: 6.00 Build 0)  -->
<svg version="1.1" id="Layer_1" xmlns="http://www.w3.org/2000/svg" xmlns:xlink="http://www.w3.org/1999/xlink" x="0px" y="0px"
	 viewBox="0 0 22 18" style="enable-background:new 0 0 22 18;" xml:space="preserve">
<style type="text/css">
	.st0{fill:#253F73;}
</style>
<path class="st0" d="M21.4,0.1h-2.8c-0.1,0-0.1,0-0.2,0.1c-0.1,0-0.1,0.1-0.1,0.2l-0.6,2.9H1.2c0,0-0.1,0-0.1,0c0,0-0.1,0.1-0.1,0.1
	c0,0,0,0.1-0.1,0.1c0,0,0,0.1,0,0.1l2,7.6c0,0,0,0,0,0c0,0,0,0,0,0c0,0,0,0,0,0.1c0,0,0,0,0,0c0,0,0,0,0.1,0c0,0,0,0,0,0l5.7,2.2
	l-2.5,0.9c-0.2-0.4-0.6-0.7-1.1-0.8c-0.5-0.1-0.9-0.1-1.4,0.1c-0.4,0.2-0.8,0.6-0.9,1s-0.2,0.9,0,1.4c0.2,0.4,0.5,0.8,0.9,1
	c0.4,0.2,0.9,0.2,1.4,0.1c0.5-0.1,0.8-0.4,1.1-0.9c0.2-0.4,0.3-0.9,0.2-1.4L9.6,14l3,1.2c-0.1,0.5,0,1,0.2,1.5
	c0.3,0.4,0.7,0.8,1.2,0.9c0.5,0.2,1,0.1,1.5-0.1c0.5-0.2,0.8-0.6,1-1.1c0.2-0.5,0.2-1,0-1.5c-0.2-0.5-0.5-0.9-1-1.1s-1-0.3-1.5-0.1
	c-0.5,0.1-0.9,0.5-1.2,0.9l-2.3-0.9l5.9-2.2c0,0,0,0,0,0c0,0,0.1,0,0.1-0.1c0,0,0,0,0,0c0,0,0,0,0-0.1c0,0,0,0,0,0c0,0,0,0,0,0
	l2.2-10.5h2.6c0.1,0,0.2,0,0.2-0.1c0.1-0.1,0.1-0.1,0.1-0.2s0-0.2-0.1-0.2C21.5,0.1,21.5,0.1,21.4,0.1L21.4,0.1z M4.5,16.9
	c-0.3,0-0.5-0.1-0.8-0.2c-0.2-0.2-0.4-0.4-0.5-0.6c-0.1-0.2-0.1-0.5-0.1-0.8c0.1-0.3,0.2-0.5,0.4-0.7c0.2-0.2,0.4-0.3,0.7-0.4
	c0.3-0.1,0.5,0,0.8,0.1c0.2,0.1,0.5,0.3,0.6,0.5c0.2,0.2,0.2,0.5,0.2,0.8c0,0.4-0.1,0.7-0.4,1C5.2,16.8,4.9,16.9,4.5,16.9z
	 M14.6,14.2c0.3,0,0.5,0.1,0.8,0.2c0.2,0.1,0.4,0.4,0.5,0.6c0.1,0.2,0.1,0.5,0.1,0.8c-0.1,0.3-0.2,0.5-0.4,0.7
	c-0.2,0.2-0.4,0.3-0.7,0.4c-0.3,0.1-0.5,0-0.8-0.1c-0.3-0.1-0.5-0.3-0.6-0.5c-0.2-0.2-0.2-0.5-0.2-0.8c0-0.4,0.1-0.7,0.4-1
	C13.9,14.3,14.2,14.2,14.6,14.2L14.6,14.2z M12.1,3.8L11.9,7H7.2L6.9,3.8L12.1,3.8z M11.9,7.6l-0.2,3.2h-4L7.3,7.6H11.9z M1.6,3.8
	h4.7L6.6,7H2.4L1.6,3.8z M2.6,7.6h4.1L7,10.8H3.4L2.6,7.6z M9.6,13.3l-4.8-1.9h9.7L9.6,13.3z M16.1,10.8h-3.8l0.2-3.2h4.2L16.1,10.8
	z M16.8,7h-4.3l0.2-3.2h4.7L16.8,7z"/>
<path class="st0" d="M4.5,15.9c0.2,0,0.3-0.1,0.3-0.3c0-0.2-0.1-0.3-0.3-0.3c-0.2,0-0.3,0.1-0.3,0.3C4.2,15.7,4.4,15.9,4.5,15.9z"/>
<path class="st0" d="M14.6,15.9c0.2,0,0.3-0.1,0.3-0.3c0-0.2-0.1-0.3-0.3-0.3c-0.2,0-0.3,0.1-0.3,0.3C14.2,15.7,14.4,15.9,14.6,15.9
	z"/>
</svg>
