<?xml version="1.0" encoding="utf-8"?>
<!-- Generator: Adobe Illustrator 25.2.3, SVG Export Plug-In . SVG Version: 6.00 Build 0)  -->
<svg version="1.1" id="Layer_1" xmlns="http://www.w3.org/2000/svg" xmlns:xlink="http://www.w3.org/1999/xlink" x="0px" y="0px"
	 viewBox="0 0 19 19" style="enable-background:new 0 0 19 19;" xml:space="preserve">
<style type="text/css">
	.st0{fill:#253F73;}
</style>
<path class="st0" d="M18.2,4.5H0.7V4.2C0.7,2.4,2.1,1,3.9,1H15c1.7,0,3.2,1.4,3.2,3.2V4.5z M1.5,3.8h16c-0.2-1.2-1.2-2.1-2.4-2.1
	H3.9C2.6,1.7,1.6,2.6,1.5,3.8z"/>
<path class="st0" d="M6.1,6.4H0.7V3.8h5.4V6.4z M1.4,5.7h3.9V4.5H1.4V5.7z M18.2,6.4h-5.4V3.8h5.4V6.4z M13.5,5.7h3.9V4.5h-3.9V5.7z
	 M12.6,9.2H6.3V6.6h6.3L12.6,9.2L12.6,9.2z M7,8.5h4.9V7.3H7V8.5z M9.5,16.6c-1.7,0-3.2-1.4-3.2-3.2s1.4-3.1,3.2-3.1
	c1.7,0,3.2,1.4,3.2,3.2C12.6,15.2,11.2,16.6,9.5,16.6z M9.5,11C8.1,11,7,12.1,7,13.5s1.1,2.4,2.4,2.4c1.3,0,2.4-1.1,2.4-2.4
	S10.8,11,9.5,11z"/>
<path class="st0" d="M9.5,14.5c-0.6,0-1.1-0.5-1.1-1.1c0-0.6,0.5-1.1,1.1-1.1c0.6,0,1.1,0.5,1.1,1.1C10.5,14.1,10,14.5,9.5,14.5z
	 M9.5,13.1c-0.2,0-0.3,0.1-0.3,0.3c0,0.2,0.1,0.3,0.3,0.3c0.2,0,0.3-0.1,0.3-0.3C9.8,13.3,9.6,13.1,9.5,13.1z"/>
<path class="st0" d="M18.3,18.5H0.6l2-10h13.6L18.3,18.5z M1.5,17.8h15.9l-1.7-8.6H3.2L1.5,17.8z"/>
</svg>
