<svg width="30" height="20" viewBox="0 0 30 20" fill="none" xmlns="http://www.w3.org/2000/svg">
<path d="M29.3242 3V17C28.5286 17 27.7655 17.3161 27.2029 17.8787C26.6403 18.4413 26.3242 19.2044 26.3242 20H3.32422C3.32422 19.2044 3.00815 18.4413 2.44554 17.8787C1.88293 17.3161 1.11987 17 0.324219 17V3C1.11987 3 1.88293 2.68393 2.44554 2.12132C3.00815 1.55871 3.32422 0.795649 3.32422 0H26.3242C26.3242 0.795649 26.6403 1.55871 27.2029 2.12132C27.7655 2.68393 28.5286 3 29.3242 3Z" fill="#0052FE"/>
<path d="M13.4823 12.7348C13.7156 12.7348 13.9 12.8001 14.0353 12.9308C14.1706 13.0568 14.2383 13.2248 14.2383 13.4348V14.6948H7.07031V13.9948C7.07031 13.8595 7.09831 13.7148 7.15431 13.5608C7.21031 13.4068 7.30831 13.2668 7.44831 13.1408L10.3883 10.1798C10.6403 9.92779 10.8596 9.68746 11.0463 9.45879C11.233 9.23012 11.387 9.00612 11.5083 8.78679C11.6296 8.56279 11.7206 8.34112 11.7813 8.12179C11.842 7.89779 11.8723 7.66212 11.8723 7.41479C11.8723 7.00879 11.7743 6.69846 11.5783 6.48379C11.387 6.26446 11.093 6.15479 10.6963 6.15479C10.3743 6.15479 10.1013 6.24112 9.87731 6.41379C9.65798 6.58179 9.50631 6.79179 9.42231 7.04379C9.32431 7.30046 9.19598 7.47079 9.03731 7.55479C8.87865 7.63879 8.65231 7.65746 8.35831 7.61079L7.21031 7.40779C7.28498 6.89912 7.42731 6.45579 7.63731 6.07779C7.85198 5.69979 8.11565 5.38479 8.42831 5.13279C8.74565 4.88079 9.10731 4.69412 9.51331 4.57279C9.91931 4.44679 10.3556 4.38379 10.8223 4.38379C11.3263 4.38379 11.779 4.45846 12.1803 4.60779C12.5863 4.75246 12.9316 4.95546 13.2163 5.21679C13.501 5.47812 13.718 5.79079 13.8673 6.15479C14.0213 6.51412 14.0983 6.91079 14.0983 7.34479C14.0983 7.71812 14.0446 8.06346 13.9373 8.38079C13.8346 8.69812 13.6923 9.00146 13.5103 9.29079C13.3283 9.57546 13.116 9.85312 12.8733 10.1238C12.6353 10.3898 12.381 10.6605 12.1103 10.9358L10.1153 12.9798C10.372 12.9005 10.6263 12.8398 10.8783 12.7978C11.1303 12.7558 11.3636 12.7348 11.5783 12.7348H13.4823Z" fill="white"/>
<path d="M19.6364 10.7328V8.07279C19.6364 7.90946 19.6411 7.73446 19.6504 7.54779C19.6644 7.35646 19.6831 7.15812 19.7064 6.95279L17.0114 10.7328H19.6364ZM22.5764 10.7328V11.9508C22.5764 12.0581 22.5391 12.1515 22.4644 12.2308C22.3944 12.3101 22.2917 12.3498 22.1564 12.3498H21.5264V14.6948H19.6364V12.3498H15.5344C15.3991 12.3498 15.2754 12.3078 15.1634 12.2238C15.0561 12.1398 14.9884 12.0348 14.9604 11.9088L14.7364 10.8378L19.4544 4.49579H21.5264V10.7328H22.5764Z" fill="white"/>
</svg>
